<svg width="295" height="340" viewBox="0 0 295 340" fill="none" xmlns="http://www.w3.org/2000/svg">
<path d="M294.382 192.259C294.382 276.059 231.164 339.277 147.364 339.277C59.4354 339.277 0.345444 280.187 0.345444 192.259C-0.117726 162.528 3.84617 132.894 12.1069 104.33C12.7818 101.971 14.206 99.8948 16.1645 98.4157C18.1229 96.9367 20.5094 96.1349 22.9636 96.1313V96.1313C25.3415 96.1292 27.6595 96.8766 29.5882 98.2673C31.5169 99.658 32.9582 101.621 33.7073 103.878C34.2727 105.179 37.9482 113.095 51.2364 113.095C78.6044 113.095 79.5091 57.115 79.5091 56.5495C79.5101 54.6247 80.0024 52.7319 80.9393 51.0506C81.8763 49.3692 83.2269 47.9547 84.8633 46.9412C86.4997 45.9277 88.3677 45.3486 90.2904 45.2587C92.2131 45.1689 94.127 45.5713 95.8507 46.4279C103.139 49.7224 111.101 51.2529 119.091 50.895C132.888 50.895 142.048 37.3806 147.364 25.6757C149.727 20.1921 151.619 14.517 153.018 8.71204C153.615 6.18186 155.066 3.9346 157.125 2.34857C159.185 0.762533 161.729 -0.065434 164.327 0.004042V0.004042C167.03 -0.0329595 169.656 0.899064 171.731 2.63131C173.805 4.36355 175.191 6.78147 175.636 9.44713C179.481 33.4224 197.463 101.786 226.527 101.786C249.824 101.786 254.8 79.7331 254.8 77.2451C255.222 74.7565 256.464 72.4804 258.329 70.7794C260.194 69.0785 262.574 68.0503 265.091 67.8586C267.502 67.6986 269.901 68.3151 271.936 69.6175C273.971 70.92 275.536 72.8401 276.4 75.0964C294.382 122.368 294.382 174.956 294.382 192.259Z" fill="#414042"/>
<path d="M294.382 192.259C294.382 276.059 231.164 339.277 147.364 339.277V25.6757C149.727 20.1921 151.619 14.517 153.018 8.71204C153.615 6.18186 155.066 3.9346 157.126 2.34857C159.185 0.762533 161.729 -0.065434 164.328 0.004042V0.004042C167.03 -0.0329595 169.656 0.899064 171.731 2.63131C173.805 4.36355 175.191 6.78147 175.637 9.44713C179.482 33.4224 197.463 101.786 226.528 101.786C249.824 101.786 254.8 79.7331 254.8 77.2451C255.222 74.7565 256.464 72.4804 258.329 70.7794C260.194 69.0785 262.575 68.0503 265.092 67.8586C267.502 67.6986 269.901 68.3151 271.936 69.6175C273.972 70.92 275.536 72.8401 276.401 75.0964C294.382 122.368 294.382 174.956 294.382 192.259Z" fill="#231F20"/>
<path d="M155.442 163.358H139.286C135.001 163.358 130.892 161.637 127.862 158.573C124.832 155.51 123.13 151.355 123.13 147.022C123.13 142.69 124.832 138.535 127.862 135.472C130.892 132.408 135.001 130.687 139.286 130.687H179.675C183.96 130.687 188.07 128.966 191.099 125.903C194.129 122.839 195.831 118.684 195.831 114.352C195.831 110.019 194.129 105.864 191.099 102.801C188.07 99.7374 183.96 98.0163 179.675 98.0163H171.598V89.8487C171.598 85.5163 169.895 81.3613 166.866 78.2978C163.836 75.2344 159.727 73.5133 155.442 73.5133C151.157 73.5133 147.048 75.2344 144.018 78.2978C140.988 81.3613 139.286 85.5163 139.286 89.8487V98.0163C126.432 98.0163 114.104 103.179 105.014 112.37C95.9247 121.56 90.8184 134.025 90.8184 147.022C90.8184 160.02 95.9247 172.485 105.014 181.675C114.104 190.865 126.432 196.028 139.286 196.028H155.442C159.727 196.028 163.836 197.749 166.866 200.813C169.895 203.876 171.598 208.031 171.598 212.364V220.531C171.598 224.864 169.895 229.019 166.866 232.082C163.836 235.146 159.727 236.867 155.442 236.867H115.052C110.767 236.867 106.658 238.588 103.628 241.651C100.598 244.715 98.8963 248.87 98.8963 253.202C98.8963 257.535 100.598 261.69 103.628 264.753C106.658 267.817 110.767 269.538 115.052 269.538H123.13V277.705C123.13 282.038 124.832 286.193 127.862 289.256C130.892 292.32 135.001 294.041 139.286 294.041C143.571 294.041 147.68 292.32 150.71 289.256C153.74 286.193 155.442 282.038 155.442 277.705V269.538C168.296 269.538 180.624 264.374 189.713 255.184C198.803 245.994 203.909 233.529 203.909 220.531V212.364C203.909 199.367 198.803 186.902 189.713 177.711C180.624 168.521 168.296 163.358 155.442 163.358Z" fill="#0094FF"/>
<path d="M198.255 113.898C198.255 109.612 196.468 105.502 193.286 102.471C190.105 99.4402 185.79 97.7376 181.291 97.7376H172.809V89.6573C172.806 86.8219 172.02 84.0372 170.53 81.5828C169.04 79.1284 166.898 77.0907 164.32 75.6743C161.742 74.2578 158.818 73.5126 155.841 73.5133C152.865 73.514 149.941 74.2607 147.364 75.6784V130.059H181.291C185.79 130.059 190.105 128.356 193.286 125.325C196.468 122.295 198.255 118.184 198.255 113.898Z" fill="#0069B5"/>
<path d="M155.442 163.986H147.364V195.62H155.442C159.727 195.62 163.836 197.286 166.866 200.252C169.896 203.219 171.598 207.242 171.598 211.437V219.345C171.598 223.54 169.896 227.563 166.866 230.529C163.836 233.496 159.727 235.162 155.442 235.162H147.364V288.386C149.817 286.999 151.855 285.005 153.273 282.603C154.691 280.202 155.439 277.478 155.442 274.704V266.796C168.296 266.796 180.624 261.797 189.714 252.898C198.803 243.999 203.909 231.93 203.909 219.345V211.437C203.909 198.852 198.803 186.783 189.714 177.884C180.624 168.985 168.296 163.986 155.442 163.986Z" fill="#0069B5"/>
</svg>
